<?xml version="1.0" encoding="utf-8"?>
<!-- Generator: Adobe Illustrator 26.2.1, SVG Export Plug-In . SVG Version: 6.00 Build 0)  -->
<svg version="1.1" id="Layer_1" xmlns="http://www.w3.org/2000/svg" xmlns:xlink="http://www.w3.org/1999/xlink" x="0px" y="0px"
	 viewBox="0 0 360 360" style="enable-background:new 0 0 360 360;" xml:space="preserve">
<style type="text/css">
	.st0{fill:#FF6D40;}
</style>
<path class="st0" d="M131.75,131.71V1.11H125c-8.69,0.02-15.73,7.08-15.72,15.77V86v23.21c0,0-83.36-0.15-92-0.15
	c-8.68,0.01-15.71,7.03-15.73,15.71v6.94L131.75,131.71z"/>
<path class="st0" d="M149.42,1.11h-6.75v141.52H1.55v6.75c-0.01,8.69,7.03,15.75,15.72,15.77h132.15
	c8.7-0.01,15.74-7.07,15.73-15.77c0,0,0,0,0,0l0,0V16.88C165.16,8.18,158.12,1.12,149.42,1.11L149.42,1.11z"/>
<path class="st0" d="M228.25,131.71V1.11H235c8.69,0.02,15.73,7.08,15.72,15.77V86v23.21c0,0,83.36-0.15,92.05-0.15
	c8.69,0.01,15.73,7.07,15.72,15.76c0,0,0,0,0,0l0,0v6.86L228.25,131.71z"/>
<path class="st0" d="M210.58,1.11h6.75v141.52h141.12v6.75c0.01,8.69-7.03,15.75-15.72,15.77H210.58
	c-8.7-0.01-15.74-7.07-15.73-15.77c0,0,0,0,0,0l0,0V16.88C194.84,8.18,201.88,1.12,210.58,1.11L210.58,1.11z"/>
<path class="st0" d="M228.25,228.29v130.6H235c8.69-0.02,15.73-7.08,15.72-15.77V274v-23.24c0,0,83.36,0.15,92.05,0.15
	c8.69-0.01,15.73-7.07,15.72-15.76v0l0,0v-6.86H228.25z"/>
<path class="st0" d="M210.58,358.89h6.75V217.37h141.12v-6.75c0.01-8.69-7.03-15.75-15.72-15.77H210.58
	c-8.7,0.01-15.74,7.07-15.73,15.77c0,0,0,0,0,0l0,0v132.5C194.84,351.82,201.88,358.88,210.58,358.89
	C210.58,358.89,210.58,358.89,210.58,358.89L210.58,358.89z"/>
<path class="st0" d="M131.75,228.29v130.6H125c-8.69-0.02-15.73-7.08-15.72-15.77l0.08-69.15v-23.21c0,0-83.36,0.15-92,0.15
	c-8.69,0.04-15.77-6.98-15.81-15.67c0,0,0,0,0,0v-7L131.75,228.29z"/>
<path class="st0" d="M149.42,358.89h-6.75V217.37H1.55v-6.75c-0.01-8.69,7.03-15.75,15.72-15.77h132.15
	c8.7,0.01,15.74,7.07,15.73,15.77c0,0,0,0,0,0l0,0v132.5C165.16,351.82,158.12,358.88,149.42,358.89
	C149.42,358.89,149.42,358.89,149.42,358.89L149.42,358.89z"/>
</svg>
